<svg id="Layer_1" data-name="Layer 1" xmlns="http://www.w3.org/2000/svg" viewBox="0 0 413.27 115.77"><defs><style>.cls-1{fill:#5e3d24;}</style></defs><title>logo</title><g id="_Group_" data-name="&lt;Group&gt;"><path id="_Compound_Path_" data-name="&lt;Compound Path&gt;" class="cls-1" d="M151.61,72.19v58a5.18,5.18,0,0,0,.67,3,4.69,4.69,0,0,0,2.65,1.43v1.66H140.14v-1.66a4.77,4.77,0,0,0,2.65-1.4,5.2,5.2,0,0,0,.67-3.06v-58h-24a5.41,5.41,0,0,0-3.09.66A4.5,4.5,0,0,0,115,75.52h-1.66V62.13H115a4.46,4.46,0,0,0,1.38,2.65,5.31,5.31,0,0,0,3.09.67h56.09a5.34,5.34,0,0,0,3.09-.67,4.46,4.46,0,0,0,1.38-2.65h1.66V75.52h-1.66a4.5,4.5,0,0,0-1.38-2.67,5.43,5.43,0,0,0-3.09-.66Z" transform="translate(-113.36 -62.13)"/><path id="_Compound_Path_2" data-name="&lt;Compound Path&gt;" class="cls-1" d="M193.9,130.16V71.57a5.36,5.36,0,0,0-.67-3.09,4.53,4.53,0,0,0-2.65-1.37V65.45h14.79v1.66a4.83,4.83,0,0,0-2.65,1.4,5.2,5.2,0,0,0-.67,3.06v58.59a5.3,5.3,0,0,0,.65,3.06,4.66,4.66,0,0,0,2.67,1.4v1.66H190.58v-1.66a4.66,4.66,0,0,0,2.67-1.4A5.3,5.3,0,0,0,193.9,130.16Z" transform="translate(-113.36 -62.13)"/><path id="_Compound_Path_3" data-name="&lt;Compound Path&gt;" class="cls-1" d="M232.46,109.09v21.07a5.18,5.18,0,0,0,.67,3,4.66,4.66,0,0,0,2.65,1.43v1.66H221v-1.66a4.81,4.81,0,0,0,2.65-1.4,5.2,5.2,0,0,0,.67-3.06V71.57a5.36,5.36,0,0,0-.67-3.09A4.56,4.56,0,0,0,221,67.11V65.45h14.79v1.66a4.83,4.83,0,0,0-2.65,1.4,5.2,5.2,0,0,0-.67,3.06V101L270.69,71.1c1.34-1,2-1.88,2-2.54s-.66-1.24-2-1.45V65.45h18.7v1.66a11.18,11.18,0,0,0-6.13,2.54L254.53,92l31.69,40.11a6.66,6.66,0,0,0,2.13,1.94,7.9,7.9,0,0,0,3,.6v1.66H274.08v-1.66c1.48-.34,2.23-.85,2.23-1.5,0-.42-.76-1.61-2.29-3.58L248.38,96.75Z" transform="translate(-113.36 -62.13)"/><path id="_Compound_Path_4" data-name="&lt;Compound Path&gt;" class="cls-1" d="M350.48,116.41H312.6l-6.23,13.44a7.86,7.86,0,0,0-.88,2.7c0,1,1,1.73,3.07,2.07v1.66h-15.8v-1.66a5.57,5.57,0,0,0,3.24-1.56,21.83,21.83,0,0,0,2.93-5.19l25.95-56a8.46,8.46,0,0,0,.93-2.75c0-.9-.85-1.57-2.54-2V65.45H340.5v1.66c-1.7.55-2.55,1.28-2.55,2.18a8.83,8.83,0,0,0,.94,2.59l24.85,54a46.13,46.13,0,0,0,3.64,7c.58.69,1.87,1.28,3.84,1.76v1.66H354.4v-1.66c2-.28,3-1,3-2.28a9.76,9.76,0,0,0-1.14-3.22Zm-3-6.75-15.95-35-15.93,35Z" transform="translate(-113.36 -62.13)"/><path id="_Compound_Path_5" data-name="&lt;Compound Path&gt;" class="cls-1" d="M390.05,129.54H435.3a5.3,5.3,0,0,0,3.09-.68,4.47,4.47,0,0,0,1.38-2.65h1.66V139.6h-1.66a4.47,4.47,0,0,0-1.38-2.64,5.3,5.3,0,0,0-3.09-.68H378.59v-1.66a4.66,4.66,0,0,0,2.67-1.4,5.39,5.39,0,0,0,.65-3.06V71.57a5.19,5.19,0,0,0-.68-3.06,4.83,4.83,0,0,0-2.64-1.4V65.45h14.78v1.66a4.83,4.83,0,0,0-2.64,1.4,5.19,5.19,0,0,0-.68,3.06Z" transform="translate(-113.36 -62.13)"/><path id="_Compound_Path_6" data-name="&lt;Compound Path&gt;" class="cls-1" d="M505.9,116.41H468l-6.23,13.44a8.09,8.09,0,0,0-.88,2.7c0,1,1,1.73,3.07,2.07v1.66h-15.8v-1.66a5.57,5.57,0,0,0,3.25-1.56,21.83,21.83,0,0,0,2.93-5.19l25.94-56a8.31,8.31,0,0,0,.94-2.75c0-.9-.85-1.57-2.54-2V65.45h17.22v1.66c-1.69.55-2.54,1.28-2.54,2.18a8.83,8.83,0,0,0,.94,2.59l24.85,54a46.13,46.13,0,0,0,3.64,7c.58.69,1.86,1.28,3.84,1.76v1.66H509.82v-1.66c2-.28,3-1,3-2.28a9.76,9.76,0,0,0-1.14-3.22Zm-3-6.75-16-35-15.94,35Z" transform="translate(-113.36 -62.13)"/></g><g id="_Group_2" data-name="&lt;Group&gt;"><path id="_Compound_Path_7" data-name="&lt;Compound Path&gt;" class="cls-1" d="M231.44,169h7.84v1.71h-7.84Z" transform="translate(-113.36 -62.13)"/><path id="_Compound_Path_8" data-name="&lt;Compound Path&gt;" class="cls-1" d="M258.33,154.86h6.47c3.43,0,7.24.85,7.24,5.93a4.6,4.6,0,0,1-4,4.67v.06a5.24,5.24,0,0,1,5,5.52c0,5.18-4.47,6.29-7.52,6.29h-7.17Zm2.09,9.71h4.35c4.35,0,5.17-2.38,5.17-3.78,0-3.14-2.22-4-4.89-4h-4.63Zm0,10.85h4.79c4.92,0,5.72-2.73,5.72-4.31,0-3.34-2.73-4.64-5.4-4.64h-5.11Z" transform="translate(-113.36 -62.13)"/><path id="_Compound_Path_9" data-name="&lt;Compound Path&gt;" class="cls-1" d="M281.49,154.86h2.1v22.47h-2.1Z" transform="translate(-113.36 -62.13)"/><path id="_Compound_Path_10" data-name="&lt;Compound Path&gt;" class="cls-1" d="M293.52,173.17a5.68,5.68,0,0,0,5.14,2.82c2.83,0,5-1.71,5-4.41,0-6.28-11.58-2.6-11.58-11.14,0-4,3.43-6.15,7.2-6.15a7.31,7.31,0,0,1,6.13,2.82l-1.81,1.3a5,5,0,0,0-4.38-2.22c-2.7,0-5,1.4-5,4.25,0,6.76,11.58,2.7,11.58,11.14,0,4.07-3.33,6.32-7,6.32a8.44,8.44,0,0,1-7.3-3.4Z" transform="translate(-113.36 -62.13)"/><path id="_Compound_Path_11" data-name="&lt;Compound Path&gt;" class="cls-1" d="M318.72,156.76H311v-1.9H328.5v1.9h-7.68v20.57h-2.1Z" transform="translate(-113.36 -62.13)"/><path id="_Compound_Path_12" data-name="&lt;Compound Path&gt;" class="cls-1" d="M335.13,154.86H341c1.77,0,8,0,8,5.9,0,4.28-3.26,5.46-5.74,5.78l6.54,10.79h-2.38l-6.32-10.67h-3.9v10.67h-2.1Zm2.1,9.9h4.44c4.41,0,5.27-2.44,5.27-4s-.86-4-5.27-4h-4.44Z" transform="translate(-113.36 -62.13)"/><path id="_Compound_Path_13" data-name="&lt;Compound Path&gt;" class="cls-1" d="M367.28,154.29c6.86,0,11.62,5,11.62,11.8s-4.76,11.81-11.62,11.81-11.61-5-11.61-11.81S360.43,154.29,367.28,154.29Zm0,21.7c5.87,0,9.53-4.31,9.53-9.9s-3.66-9.9-9.53-9.9-9.52,4.32-9.52,9.9S361.41,176,367.28,176Z" transform="translate(-113.36 -62.13)"/><path id="_Compound_Path_14" data-name="&lt;Compound Path&gt;" class="cls-1" d="M396.48,169h7.84v1.71h-7.84Z" transform="translate(-113.36 -62.13)"/></g></svg>